<svg xmlns="http://www.w3.org/2000/svg" version="1.1" xmlns:xlink="http://www.w3.org/1999/xlink" xmlns:svgjs="http://svgjs.com/svgjs" width="560" height="560" preserveAspectRatio="none" viewBox="0 0 560 560"><g mask="url(&quot;#SvgjsMask1022&quot;)" fill="none"><rect width="560" height="560" x="0" y="0" fill="#0e2a47"></rect><path d="M-48.7 378.8L-48.7 378.8" stroke="#132e65" stroke-width="1.5"></path><path d="M-48.7 378.8L-48.43 444.7" stroke="#132e65" stroke-width="1.5"></path><path d="M-48.7 378.8L38.62 383.05" stroke="#132e65" stroke-width="1.5"></path><path d="M-48.7 378.8L32.63 459.12" stroke="#132e65" stroke-width="1.5"></path><path d="M-48.7 378.8L-20.24 519.37" stroke="#132e65" stroke-width="1.5"></path><path d="M-48.7 378.8L100.01 386.43" stroke="#132e65" stroke-width="1.5"></path><path d="M-48.7 378.8L24.27 515.68" stroke="#132e65" stroke-width="1.5"></path><path d="M-48.43 444.7L-48.43 444.7" stroke="#132e65" stroke-width="1.5"></path><path d="M-48.43 444.7L-20.24 519.37" stroke="#132e65" stroke-width="1.5"></path><path d="M-48.43 444.7L32.63 459.12" stroke="#132e65" stroke-width="1.5"></path><path d="M-48.43 444.7L24.27 515.68" stroke="#132e65" stroke-width="1.5"></path><path d="M-20.24 519.37L-20.24 519.37" stroke="#132e65" stroke-width="1.5"></path><path d="M-20.24 519.37L24.27 515.68" stroke="#132e65" stroke-width="1.5"></path><path d="M-20.24 519.37L-25.29 589.25" stroke="#132e65" stroke-width="1.5"></path><path d="M-25.29 589.25L-25.29 589.25" stroke="#132e65" stroke-width="1.5"></path><path d="M-25.29 589.25L45.37 581.54" stroke="#132e65" stroke-width="1.5"></path><path d="M-25.29 589.25L24.27 515.68" stroke="#132e65" stroke-width="1.5"></path><path d="M-25.29 589.25L92.25 604.66" stroke="#132e65" stroke-width="1.5"></path><path d="M-25.29 589.25L32.63 459.12" stroke="#132e65" stroke-width="1.5"></path><path d="M-25.29 589.25L-48.43 444.7" stroke="#132e65" stroke-width="1.5"></path><path d="M38.62 383.05L38.62 383.05" stroke="#132e65" stroke-width="1.5"></path><path d="M38.62 383.05L100.01 386.43" stroke="#132e65" stroke-width="1.5"></path><path d="M38.62 383.05L32.63 459.12" stroke="#132e65" stroke-width="1.5"></path><path d="M32.63 459.12L32.63 459.12" stroke="#132e65" stroke-width="1.5"></path><path d="M32.63 459.12L24.27 515.68" stroke="#132e65" stroke-width="1.5"></path><path d="M32.63 459.12L-20.24 519.37" stroke="#132e65" stroke-width="1.5"></path><path d="M24.27 515.68L24.27 515.68" stroke="#132e65" stroke-width="1.5"></path><path d="M24.27 515.68L45.37 581.54" stroke="#132e65" stroke-width="1.5"></path><path d="M24.27 515.68L113.52 532.04" stroke="#132e65" stroke-width="1.5"></path><path d="M45.37 581.54L45.37 581.54" stroke="#132e65" stroke-width="1.5"></path><path d="M45.37 581.54L92.25 604.66" stroke="#132e65" stroke-width="1.5"></path><path d="M45.37 581.54L113.52 532.04" stroke="#132e65" stroke-width="1.5"></path><path d="M100.01 386.43L100.01 386.43" stroke="#132e65" stroke-width="1.5"></path><path d="M100.01 386.43L179.63 369.57" stroke="#132e65" stroke-width="1.5"></path><path d="M100.01 386.43L172.99 329.84" stroke="#132e65" stroke-width="1.5"></path><path d="M100.01 386.43L32.63 459.12" stroke="#132e65" stroke-width="1.5"></path><path d="M113.52 532.04L113.52 532.04" stroke="#132e65" stroke-width="1.5"></path><path d="M113.52 532.04L160.13 531.61" stroke="#132e65" stroke-width="1.5"></path><path d="M113.52 532.04L92.25 604.66" stroke="#132e65" stroke-width="1.5"></path><path d="M113.52 532.04L175.33 462.04" stroke="#132e65" stroke-width="1.5"></path><path d="M113.52 532.04L172.45 609.21" stroke="#132e65" stroke-width="1.5"></path><path d="M92.25 604.66L92.25 604.66" stroke="#132e65" stroke-width="1.5"></path><path d="M92.25 604.66L172.45 609.21" stroke="#132e65" stroke-width="1.5"></path><path d="M92.25 604.66L160.13 531.61" stroke="#132e65" stroke-width="1.5"></path><path d="M92.25 604.66L24.27 515.68" stroke="#132e65" stroke-width="1.5"></path><path d="M172.99 329.84L172.99 329.84" stroke="#132e65" stroke-width="1.5"></path><path d="M172.99 329.84L179.63 369.57" stroke="#132e65" stroke-width="1.5"></path><path d="M172.99 329.84L259.66 326.83" stroke="#132e65" stroke-width="1.5"></path><path d="M179.63 369.57L179.63 369.57" stroke="#132e65" stroke-width="1.5"></path><path d="M179.63 369.57L241.69 388.89" stroke="#132e65" stroke-width="1.5"></path><path d="M179.63 369.57L259.66 326.83" stroke="#132e65" stroke-width="1.5"></path><path d="M179.63 369.57L175.33 462.04" stroke="#132e65" stroke-width="1.5"></path><path d="M179.63 369.57L228.68 459.9" stroke="#132e65" stroke-width="1.5"></path><path d="M175.33 462.04L175.33 462.04" stroke="#132e65" stroke-width="1.5"></path><path d="M175.33 462.04L228.68 459.9" stroke="#132e65" stroke-width="1.5"></path><path d="M175.33 462.04L160.13 531.61" stroke="#132e65" stroke-width="1.5"></path><path d="M175.33 462.04L243.65 511.53" stroke="#132e65" stroke-width="1.5"></path><path d="M175.33 462.04L241.69 388.89" stroke="#132e65" stroke-width="1.5"></path><path d="M160.13 531.61L160.13 531.61" stroke="#132e65" stroke-width="1.5"></path><path d="M160.13 531.61L172.45 609.21" stroke="#132e65" stroke-width="1.5"></path><path d="M160.13 531.61L243.65 511.53" stroke="#132e65" stroke-width="1.5"></path><path d="M160.13 531.61L228.68 459.9" stroke="#132e65" stroke-width="1.5"></path><path d="M172.45 609.21L172.45 609.21" stroke="#132e65" stroke-width="1.5"></path><path d="M172.45 609.21L234.25 609.63" stroke="#132e65" stroke-width="1.5"></path><path d="M259.66 326.83L259.66 326.83" stroke="#132e65" stroke-width="1.5"></path><path d="M259.66 326.83L241.69 388.89" stroke="#132e65" stroke-width="1.5"></path><path d="M259.66 326.83L323.72 297.95" stroke="#132e65" stroke-width="1.5"></path><path d="M241.69 388.89L241.69 388.89" stroke="#132e65" stroke-width="1.5"></path><path d="M241.69 388.89L228.68 459.9" stroke="#132e65" stroke-width="1.5"></path><path d="M241.69 388.89L323.62 369.09" stroke="#132e65" stroke-width="1.5"></path><path d="M241.69 388.89L172.99 329.84" stroke="#132e65" stroke-width="1.5"></path><path d="M228.68 459.9L228.68 459.9" stroke="#132e65" stroke-width="1.5"></path><path d="M228.68 459.9L243.65 511.53" stroke="#132e65" stroke-width="1.5"></path><path d="M228.68 459.9L317.43 439.85" stroke="#132e65" stroke-width="1.5"></path><path d="M243.65 511.53L243.65 511.53" stroke="#132e65" stroke-width="1.5"></path><path d="M243.65 511.53L299.79 533.48" stroke="#132e65" stroke-width="1.5"></path><path d="M243.65 511.53L234.25 609.63" stroke="#132e65" stroke-width="1.5"></path><path d="M234.25 609.63L234.25 609.63" stroke="#132e65" stroke-width="1.5"></path><path d="M234.25 609.63L326.43 582.72" stroke="#132e65" stroke-width="1.5"></path><path d="M234.25 609.63L299.79 533.48" stroke="#132e65" stroke-width="1.5"></path><path d="M234.25 609.63L160.13 531.61" stroke="#132e65" stroke-width="1.5"></path><path d="M306.14 163.18L306.14 163.18" stroke="#132e65" stroke-width="1.5"></path><path d="M306.14 163.18L324.2 253.29" stroke="#132e65" stroke-width="1.5"></path><path d="M306.14 163.18L399.94 185.36" stroke="#132e65" stroke-width="1.5"></path><path d="M306.14 163.18L398.1 93.66" stroke="#132e65" stroke-width="1.5"></path><path d="M306.14 163.18L398.5 241.18" stroke="#132e65" stroke-width="1.5"></path><path d="M306.14 163.18L323.72 297.95" stroke="#132e65" stroke-width="1.5"></path><path d="M306.14 163.18L450.04 167.85" stroke="#132e65" stroke-width="1.5"></path><path d="M324.2 253.29L324.2 253.29" stroke="#132e65" stroke-width="1.5"></path><path d="M324.2 253.29L323.72 297.95" stroke="#132e65" stroke-width="1.5"></path><path d="M324.2 253.29L381.88 299.35" stroke="#132e65" stroke-width="1.5"></path><path d="M323.72 297.95L323.72 297.95" stroke="#132e65" stroke-width="1.5"></path><path d="M323.72 297.95L381.88 299.35" stroke="#132e65" stroke-width="1.5"></path><path d="M323.72 297.95L323.62 369.09" stroke="#132e65" stroke-width="1.5"></path><path d="M323.72 297.95L398.5 241.18" stroke="#132e65" stroke-width="1.5"></path><path d="M323.72 297.95L241.69 388.89" stroke="#132e65" stroke-width="1.5"></path><path d="M323.62 369.09L323.62 369.09" stroke="#132e65" stroke-width="1.5"></path><path d="M323.62 369.09L317.43 439.85" stroke="#132e65" stroke-width="1.5"></path><path d="M323.62 369.09L259.66 326.83" stroke="#132e65" stroke-width="1.5"></path><path d="M323.62 369.09L381.88 299.35" stroke="#132e65" stroke-width="1.5"></path><path d="M317.43 439.85L317.43 439.85" stroke="#132e65" stroke-width="1.5"></path><path d="M317.43 439.85L400.53 466.77" stroke="#132e65" stroke-width="1.5"></path><path d="M299.79 533.48L299.79 533.48" stroke="#132e65" stroke-width="1.5"></path><path d="M299.79 533.48L326.43 582.72" stroke="#132e65" stroke-width="1.5"></path><path d="M299.79 533.48L371.41 523.34" stroke="#132e65" stroke-width="1.5"></path><path d="M299.79 533.48L317.43 439.85" stroke="#132e65" stroke-width="1.5"></path><path d="M299.79 533.48L228.68 459.9" stroke="#132e65" stroke-width="1.5"></path><path d="M326.43 582.72L326.43 582.72" stroke="#132e65" stroke-width="1.5"></path><path d="M326.43 582.72L371.41 523.34" stroke="#132e65" stroke-width="1.5"></path><path d="M395.2 -48.3L395.2 -48.3" stroke="#132e65" stroke-width="1.5"></path><path d="M395.2 -48.3L444.5 -38.88" stroke="#132e65" stroke-width="1.5"></path><path d="M395.2 -48.3L384.79 17.9" stroke="#132e65" stroke-width="1.5"></path><path d="M395.2 -48.3L439.61 28.43" stroke="#132e65" stroke-width="1.5"></path><path d="M384.79 17.9L384.79 17.9" stroke="#132e65" stroke-width="1.5"></path><path d="M384.79 17.9L439.61 28.43" stroke="#132e65" stroke-width="1.5"></path><path d="M384.79 17.9L398.1 93.66" stroke="#132e65" stroke-width="1.5"></path><path d="M384.79 17.9L444.5 -38.88" stroke="#132e65" stroke-width="1.5"></path><path d="M398.1 93.66L398.1 93.66" stroke="#132e65" stroke-width="1.5"></path><path d="M398.1 93.66L451.91 117.84" stroke="#132e65" stroke-width="1.5"></path><path d="M399.94 185.36L399.94 185.36" stroke="#132e65" stroke-width="1.5"></path><path d="M399.94 185.36L450.04 167.85" stroke="#132e65" stroke-width="1.5"></path><path d="M399.94 185.36L398.5 241.18" stroke="#132e65" stroke-width="1.5"></path><path d="M399.94 185.36L451.91 117.84" stroke="#132e65" stroke-width="1.5"></path><path d="M399.94 185.36L398.1 93.66" stroke="#132e65" stroke-width="1.5"></path><path d="M398.5 241.18L398.5 241.18" stroke="#132e65" stroke-width="1.5"></path><path d="M398.5 241.18L381.88 299.35" stroke="#132e65" stroke-width="1.5"></path><path d="M398.5 241.18L466.13 260.49" stroke="#132e65" stroke-width="1.5"></path><path d="M381.88 299.35L381.88 299.35" stroke="#132e65" stroke-width="1.5"></path><path d="M381.88 299.35L453.37 312.82" stroke="#132e65" stroke-width="1.5"></path><path d="M381.88 299.35L466.13 260.49" stroke="#132e65" stroke-width="1.5"></path><path d="M400.53 466.77L400.53 466.77" stroke="#132e65" stroke-width="1.5"></path><path d="M400.53 466.77L371.41 523.34" stroke="#132e65" stroke-width="1.5"></path><path d="M371.41 523.34L371.41 523.34" stroke="#132e65" stroke-width="1.5"></path><path d="M444.5 -38.88L444.5 -38.88" stroke="#132e65" stroke-width="1.5"></path><path d="M444.5 -38.88L439.61 28.43" stroke="#132e65" stroke-width="1.5"></path><path d="M444.5 -38.88L528.69 -23.64" stroke="#132e65" stroke-width="1.5"></path><path d="M444.5 -38.88L532.26 47.9" stroke="#132e65" stroke-width="1.5"></path><path d="M444.5 -38.88L398.1 93.66" stroke="#132e65" stroke-width="1.5"></path><path d="M439.61 28.43L439.61 28.43" stroke="#132e65" stroke-width="1.5"></path><path d="M451.91 117.84L451.91 117.84" stroke="#132e65" stroke-width="1.5"></path><path d="M451.91 117.84L450.04 167.85" stroke="#132e65" stroke-width="1.5"></path><path d="M451.91 117.84L529.27 91.63" stroke="#132e65" stroke-width="1.5"></path><path d="M451.91 117.84L439.61 28.43" stroke="#132e65" stroke-width="1.5"></path><path d="M450.04 167.85L450.04 167.85" stroke="#132e65" stroke-width="1.5"></path><path d="M466.13 260.49L466.13 260.49" stroke="#132e65" stroke-width="1.5"></path><path d="M466.13 260.49L453.37 312.82" stroke="#132e65" stroke-width="1.5"></path><path d="M466.13 260.49L527.97 238.61" stroke="#132e65" stroke-width="1.5"></path><path d="M466.13 260.49L513.09 308.64" stroke="#132e65" stroke-width="1.5"></path><path d="M466.13 260.49L450.04 167.85" stroke="#132e65" stroke-width="1.5"></path><path d="M453.37 312.82L453.37 312.82" stroke="#132e65" stroke-width="1.5"></path><path d="M453.37 312.82L513.09 308.64" stroke="#132e65" stroke-width="1.5"></path><path d="M453.37 312.82L445.69 383.35" stroke="#132e65" stroke-width="1.5"></path><path d="M453.37 312.82L398.5 241.18" stroke="#132e65" stroke-width="1.5"></path><path d="M445.69 383.35L445.69 383.35" stroke="#132e65" stroke-width="1.5"></path><path d="M445.69 383.35L511.54 398.95" stroke="#132e65" stroke-width="1.5"></path><path d="M445.69 383.35L400.53 466.77" stroke="#132e65" stroke-width="1.5"></path><path d="M445.69 383.35L513.09 308.64" stroke="#132e65" stroke-width="1.5"></path><path d="M445.69 383.35L381.88 299.35" stroke="#132e65" stroke-width="1.5"></path><path d="M445.69 383.35L323.62 369.09" stroke="#132e65" stroke-width="1.5"></path><path d="M472.47 517.08L472.47 517.08" stroke="#132e65" stroke-width="1.5"></path><path d="M472.47 517.08L529.12 518.36" stroke="#132e65" stroke-width="1.5"></path><path d="M472.47 517.08L400.53 466.77" stroke="#132e65" stroke-width="1.5"></path><path d="M472.47 517.08L441.44 600.08" stroke="#132e65" stroke-width="1.5"></path><path d="M441.44 600.08L441.44 600.08" stroke="#132e65" stroke-width="1.5"></path><path d="M441.44 600.08L522.72 600.72" stroke="#132e65" stroke-width="1.5"></path><path d="M441.44 600.08L371.41 523.34" stroke="#132e65" stroke-width="1.5"></path><path d="M441.44 600.08L326.43 582.72" stroke="#132e65" stroke-width="1.5"></path><path d="M441.44 600.08L529.12 518.36" stroke="#132e65" stroke-width="1.5"></path><path d="M528.69 -23.64L528.69 -23.64" stroke="#132e65" stroke-width="1.5"></path><path d="M528.69 -23.64L532.26 47.9" stroke="#132e65" stroke-width="1.5"></path><path d="M532.26 47.9L532.26 47.9" stroke="#132e65" stroke-width="1.5"></path><path d="M532.26 47.9L529.27 91.63" stroke="#132e65" stroke-width="1.5"></path><path d="M529.27 91.63L529.27 91.63" stroke="#132e65" stroke-width="1.5"></path><path d="M529.27 91.63L597.72 88.42" stroke="#132e65" stroke-width="1.5"></path><path d="M521.51 182.27L521.51 182.27" stroke="#132e65" stroke-width="1.5"></path><path d="M521.51 182.27L527.97 238.61" stroke="#132e65" stroke-width="1.5"></path><path d="M521.51 182.27L450.04 167.85" stroke="#132e65" stroke-width="1.5"></path><path d="M527.97 238.61L527.97 238.61" stroke="#132e65" stroke-width="1.5"></path><path d="M513.09 308.64L513.09 308.64" stroke="#132e65" stroke-width="1.5"></path><path d="M513.09 308.64L527.97 238.61" stroke="#132e65" stroke-width="1.5"></path><path d="M513.09 308.64L590.99 304.87" stroke="#132e65" stroke-width="1.5"></path><path d="M513.09 308.64L511.54 398.95" stroke="#132e65" stroke-width="1.5"></path><path d="M511.54 398.95L511.54 398.95" stroke="#132e65" stroke-width="1.5"></path><path d="M511.54 398.95L595.06 379.56" stroke="#132e65" stroke-width="1.5"></path><path d="M511.54 398.95L581.82 459.15" stroke="#132e65" stroke-width="1.5"></path><path d="M511.54 398.95L453.37 312.82" stroke="#132e65" stroke-width="1.5"></path><path d="M529.12 518.36L529.12 518.36" stroke="#132e65" stroke-width="1.5"></path><path d="M529.12 518.36L585.55 540.81" stroke="#132e65" stroke-width="1.5"></path><path d="M529.12 518.36L581.82 459.15" stroke="#132e65" stroke-width="1.5"></path><path d="M529.12 518.36L522.72 600.72" stroke="#132e65" stroke-width="1.5"></path><path d="M529.12 518.36L584.06 595.48" stroke="#132e65" stroke-width="1.5"></path><path d="M522.72 600.72L522.72 600.72" stroke="#132e65" stroke-width="1.5"></path><path d="M522.72 600.72L584.06 595.48" stroke="#132e65" stroke-width="1.5"></path><path d="M522.72 600.72L585.55 540.81" stroke="#132e65" stroke-width="1.5"></path><path d="M601.82 27.86L601.82 27.86" stroke="#132e65" stroke-width="1.5"></path><path d="M601.82 27.86L597.72 88.42" stroke="#132e65" stroke-width="1.5"></path><path d="M601.82 27.86L532.26 47.9" stroke="#132e65" stroke-width="1.5"></path><path d="M597.72 88.42L597.72 88.42" stroke="#132e65" stroke-width="1.5"></path><path d="M597.72 88.42L532.26 47.9" stroke="#132e65" stroke-width="1.5"></path><path d="M597.72 88.42L605.92 186.92" stroke="#132e65" stroke-width="1.5"></path><path d="M597.72 88.42L521.51 182.27" stroke="#132e65" stroke-width="1.5"></path><path d="M605.92 186.92L605.92 186.92" stroke="#132e65" stroke-width="1.5"></path><path d="M605.92 186.92L593.9 241.32" stroke="#132e65" stroke-width="1.5"></path><path d="M605.92 186.92L521.51 182.27" stroke="#132e65" stroke-width="1.5"></path><path d="M605.92 186.92L527.97 238.61" stroke="#132e65" stroke-width="1.5"></path><path d="M605.92 186.92L590.99 304.87" stroke="#132e65" stroke-width="1.5"></path><path d="M593.9 241.32L593.9 241.32" stroke="#132e65" stroke-width="1.5"></path><path d="M593.9 241.32L590.99 304.87" stroke="#132e65" stroke-width="1.5"></path><path d="M593.9 241.32L527.97 238.61" stroke="#132e65" stroke-width="1.5"></path><path d="M593.9 241.32L521.51 182.27" stroke="#132e65" stroke-width="1.5"></path><path d="M593.9 241.32L513.09 308.64" stroke="#132e65" stroke-width="1.5"></path><path d="M590.99 304.87L590.99 304.87" stroke="#132e65" stroke-width="1.5"></path><path d="M590.99 304.87L595.06 379.56" stroke="#132e65" stroke-width="1.5"></path><path d="M595.06 379.56L595.06 379.56" stroke="#132e65" stroke-width="1.5"></path><path d="M595.06 379.56L581.82 459.15" stroke="#132e65" stroke-width="1.5"></path><path d="M581.82 459.15L581.82 459.15" stroke="#132e65" stroke-width="1.5"></path><path d="M581.82 459.15L585.55 540.81" stroke="#132e65" stroke-width="1.5"></path><path d="M581.82 459.15L472.47 517.08" stroke="#132e65" stroke-width="1.5"></path><path d="M581.82 459.15L584.06 595.48" stroke="#132e65" stroke-width="1.5"></path><path d="M585.55 540.81L585.55 540.81" stroke="#132e65" stroke-width="1.5"></path><path d="M585.55 540.81L584.06 595.48" stroke="#132e65" stroke-width="1.5"></path><path d="M584.06 595.48L584.06 595.48" stroke="#132e65" stroke-width="1.5"></path><circle r="5" cx="-48.7" cy="378.8" fill="#132e65"></circle><circle r="5" cx="-48.43" cy="444.7" fill="#132e65"></circle><circle r="5" cx="-20.24" cy="519.37" fill="#132e65"></circle><circle r="5" cx="-25.29" cy="589.25" fill="#132e65"></circle><circle r="5" cx="38.62" cy="383.05" fill="#132e65"></circle><circle r="5" cx="32.63" cy="459.12" fill="#132e65"></circle><circle r="5" cx="24.27" cy="515.68" fill="#132e65"></circle><circle r="5" cx="45.37" cy="581.54" fill="#132e65"></circle><circle r="5" cx="100.01" cy="386.43" fill="#132e65"></circle><circle r="5" cx="113.52" cy="532.04" fill="#132e65"></circle><circle r="5" cx="92.25" cy="604.66" fill="#132e65"></circle><circle r="5" cx="172.99" cy="329.84" fill="#132e65"></circle><circle r="5" cx="179.63" cy="369.57" fill="#132e65"></circle><circle r="5" cx="175.33" cy="462.04" fill="#132e65"></circle><circle r="5" cx="160.13" cy="531.61" fill="#132e65"></circle><circle r="5" cx="172.45" cy="609.21" fill="#132e65"></circle><circle r="5" cx="259.66" cy="326.83" fill="#132e65"></circle><circle r="5" cx="241.69" cy="388.89" fill="#132e65"></circle><circle r="5" cx="228.68" cy="459.9" fill="#132e65"></circle><circle r="5" cx="243.65" cy="511.53" fill="#132e65"></circle><circle r="5" cx="234.25" cy="609.63" fill="#132e65"></circle><circle r="5" cx="306.14" cy="163.18" fill="#132e65"></circle><circle r="5" cx="324.2" cy="253.29" fill="#132e65"></circle><circle r="5" cx="323.72" cy="297.95" fill="#132e65"></circle><circle r="5" cx="323.62" cy="369.09" fill="#132e65"></circle><circle r="5" cx="317.43" cy="439.85" fill="#132e65"></circle><circle r="5" cx="299.79" cy="533.48" fill="#132e65"></circle><circle r="5" cx="326.43" cy="582.72" fill="#132e65"></circle><circle r="5" cx="395.2" cy="-48.3" fill="#132e65"></circle><circle r="5" cx="384.79" cy="17.9" fill="#132e65"></circle><circle r="5" cx="398.1" cy="93.66" fill="#132e65"></circle><circle r="5" cx="399.94" cy="185.36" fill="#132e65"></circle><circle r="5" cx="398.5" cy="241.18" fill="#132e65"></circle><circle r="5" cx="381.88" cy="299.35" fill="#132e65"></circle><circle r="5" cx="400.53" cy="466.77" fill="#132e65"></circle><circle r="5" cx="371.41" cy="523.34" fill="#132e65"></circle><circle r="5" cx="444.5" cy="-38.88" fill="#132e65"></circle><circle r="5" cx="439.61" cy="28.43" fill="#132e65"></circle><circle r="5" cx="451.91" cy="117.84" fill="#132e65"></circle><circle r="5" cx="450.04" cy="167.85" fill="#132e65"></circle><circle r="5" cx="466.13" cy="260.49" fill="#132e65"></circle><circle r="5" cx="453.37" cy="312.82" fill="#132e65"></circle><circle r="5" cx="445.69" cy="383.35" fill="#132e65"></circle><circle r="5" cx="472.47" cy="517.08" fill="#132e65"></circle><circle r="5" cx="441.44" cy="600.08" fill="#132e65"></circle><circle r="5" cx="528.69" cy="-23.64" fill="#132e65"></circle><circle r="5" cx="532.26" cy="47.9" fill="#132e65"></circle><circle r="5" cx="529.27" cy="91.63" fill="#132e65"></circle><circle r="5" cx="521.51" cy="182.27" fill="#132e65"></circle><circle r="5" cx="527.97" cy="238.61" fill="#132e65"></circle><circle r="5" cx="513.09" cy="308.64" fill="#132e65"></circle><circle r="5" cx="511.54" cy="398.95" fill="#132e65"></circle><circle r="5" cx="529.12" cy="518.36" fill="#132e65"></circle><circle r="5" cx="522.72" cy="600.72" fill="#132e65"></circle><circle r="5" cx="601.82" cy="27.86" fill="#132e65"></circle><circle r="5" cx="597.72" cy="88.42" fill="#132e65"></circle><circle r="5" cx="605.92" cy="186.92" fill="#132e65"></circle><circle r="5" cx="593.9" cy="241.32" fill="#132e65"></circle><circle r="5" cx="590.99" cy="304.87" fill="#132e65"></circle><circle r="5" cx="595.06" cy="379.56" fill="#132e65"></circle><circle r="5" cx="581.82" cy="459.15" fill="#132e65"></circle><circle r="5" cx="585.55" cy="540.81" fill="#132e65"></circle><circle r="5" cx="584.06" cy="595.48" fill="#132e65"></circle><path d="M-47.8 460.48L-47.8 460.48" stroke="hsl(228.5, 77.2%, 51.5%)" stroke-width="1.5"></path><path d="M-47.8 460.48L-27.69 525.15" stroke="hsl(228.5, 77.2%, 51.5%)" stroke-width="1.5"></path><path d="M-47.8 460.48L50.75 532.56" stroke="hsl(228.5, 77.2%, 51.5%)" stroke-width="1.5"></path><path d="M-47.8 460.48L-46.57 583.54" stroke="hsl(228.5, 77.2%, 51.5%)" stroke-width="1.5"></path><path d="M-47.8 460.48L32.95 603.41" stroke="hsl(228.5, 77.2%, 51.5%)" stroke-width="1.5"></path><path d="M-47.8 460.48L120.2 468.25" stroke="hsl(228.5, 77.2%, 51.5%)" stroke-width="1.5"></path><path d="M-46.57 583.54L-46.57 583.54" stroke="hsl(228.5, 77.2%, 51.5%)" stroke-width="1.5"></path><path d="M-46.57 583.54L-27.69 525.15" stroke="hsl(228.5, 77.2%, 51.5%)" stroke-width="1.5"></path><path d="M-46.57 583.54L32.95 603.41" stroke="hsl(228.5, 77.2%, 51.5%)" stroke-width="1.5"></path><path d="M-46.57 583.54L50.75 532.56" stroke="hsl(228.5, 77.2%, 51.5%)" stroke-width="1.5"></path><path d="M-46.57 583.54L121.14 538.18" stroke="hsl(228.5, 77.2%, 51.5%)" stroke-width="1.5"></path><path d="M120.2 468.25L120.2 468.25" stroke="hsl(228.5, 77.2%, 51.5%)" stroke-width="1.5"></path><path d="M120.2 468.25L121.14 538.18" stroke="hsl(228.5, 77.2%, 51.5%)" stroke-width="1.5"></path><path d="M120.2 468.25L50.75 532.56" stroke="hsl(228.5, 77.2%, 51.5%)" stroke-width="1.5"></path><path d="M120.2 468.25L233.28 510.82" stroke="hsl(228.5, 77.2%, 51.5%)" stroke-width="1.5"></path><path d="M120.2 468.25L171.45 585.42" stroke="hsl(228.5, 77.2%, 51.5%)" stroke-width="1.5"></path><path d="M120.2 468.25L229.63 401.25" stroke="hsl(228.5, 77.2%, 51.5%)" stroke-width="1.5"></path><path d="M171.45 585.42L171.45 585.42" stroke="hsl(228.5, 77.2%, 51.5%)" stroke-width="1.5"></path><path d="M171.45 585.42L121.14 538.18" stroke="hsl(228.5, 77.2%, 51.5%)" stroke-width="1.5"></path><path d="M171.45 585.42L259.07 596.67" stroke="hsl(228.5, 77.2%, 51.5%)" stroke-width="1.5"></path><path d="M171.45 585.42L233.28 510.82" stroke="hsl(228.5, 77.2%, 51.5%)" stroke-width="1.5"></path><path d="M171.45 585.42L50.75 532.56" stroke="hsl(228.5, 77.2%, 51.5%)" stroke-width="1.5"></path><path d="M171.45 585.42L309.67 587.88" stroke="hsl(228.5, 77.2%, 51.5%)" stroke-width="1.5"></path><path d="M388.36 367.71L388.36 367.71" stroke="hsl(228.5, 77.2%, 51.5%)" stroke-width="1.5"></path><path d="M388.36 367.71L382.12 308.67" stroke="hsl(228.5, 77.2%, 51.5%)" stroke-width="1.5"></path><path d="M388.36 367.71L454.69 394.21" stroke="hsl(228.5, 77.2%, 51.5%)" stroke-width="1.5"></path><path d="M388.36 367.71L370.23 438.33" stroke="hsl(228.5, 77.2%, 51.5%)" stroke-width="1.5"></path><path d="M388.36 367.71L317.39 402.11" stroke="hsl(228.5, 77.2%, 51.5%)" stroke-width="1.5"></path><path d="M388.36 367.71L463.38 311.25" stroke="hsl(228.5, 77.2%, 51.5%)" stroke-width="1.5"></path><path d="M388.36 367.71L463.48 450.47" stroke="hsl(228.5, 77.2%, 51.5%)" stroke-width="1.5"></path><path d="M438.86 234.12L438.86 234.12" stroke="hsl(228.5, 77.2%, 51.5%)" stroke-width="1.5"></path><path d="M438.86 234.12L389.62 244.27" stroke="hsl(228.5, 77.2%, 51.5%)" stroke-width="1.5"></path><path d="M438.86 234.12L447.76 169.61" stroke="hsl(228.5, 77.2%, 51.5%)" stroke-width="1.5"></path><path d="M454.69 394.21L454.69 394.21" stroke="hsl(228.5, 77.2%, 51.5%)" stroke-width="1.5"></path><path d="M454.69 394.21L463.48 450.47" stroke="hsl(228.5, 77.2%, 51.5%)" stroke-width="1.5"></path><path d="M454.69 394.21L513.93 380.9" stroke="hsl(228.5, 77.2%, 51.5%)" stroke-width="1.5"></path><path d="M454.69 394.21L463.38 311.25" stroke="hsl(228.5, 77.2%, 51.5%)" stroke-width="1.5"></path><path d="M454.69 394.21L370.23 438.33" stroke="hsl(228.5, 77.2%, 51.5%)" stroke-width="1.5"></path><path d="M463.48 450.47L463.48 450.47" stroke="hsl(228.5, 77.2%, 51.5%)" stroke-width="1.5"></path><path d="M463.48 450.47L522.65 464.13" stroke="hsl(228.5, 77.2%, 51.5%)" stroke-width="1.5"></path><path d="M463.48 450.47L458.51 533.34" stroke="hsl(228.5, 77.2%, 51.5%)" stroke-width="1.5"></path><path d="M463.48 450.47L513.93 380.9" stroke="hsl(228.5, 77.2%, 51.5%)" stroke-width="1.5"></path><path d="M522.65 464.13L522.65 464.13" stroke="hsl(228.5, 77.2%, 51.5%)" stroke-width="1.5"></path><path d="M522.65 464.13L538.39 518.39" stroke="hsl(228.5, 77.2%, 51.5%)" stroke-width="1.5"></path><path d="M521.52 593.08L521.52 593.08" stroke="hsl(228.5, 77.2%, 51.5%)" stroke-width="1.5"></path><path d="M521.52 593.08L595.16 595.94" stroke="hsl(228.5, 77.2%, 51.5%)" stroke-width="1.5"></path><path d="M521.52 593.08L538.39 518.39" stroke="hsl(228.5, 77.2%, 51.5%)" stroke-width="1.5"></path><path d="M521.52 593.08L458.51 533.34" stroke="hsl(228.5, 77.2%, 51.5%)" stroke-width="1.5"></path><path d="M603.71 29.72L603.71 29.72" stroke="hsl(228.5, 77.2%, 51.5%)" stroke-width="1.5"></path><path d="M603.71 29.72L601.64 93.82" stroke="hsl(228.5, 77.2%, 51.5%)" stroke-width="1.5"></path><path d="M603.71 29.72L516.54 35.69" stroke="hsl(228.5, 77.2%, 51.5%)" stroke-width="1.5"></path><path d="M603.71 29.72L524.12 -26.18" stroke="hsl(228.5, 77.2%, 51.5%)" stroke-width="1.5"></path><path d="M603.71 29.72L511.55 119.38" stroke="hsl(228.5, 77.2%, 51.5%)" stroke-width="1.5"></path><path d="M603.71 29.72L605.03 186.62" stroke="hsl(228.5, 77.2%, 51.5%)" stroke-width="1.5"></path><path d="M603.71 29.72L446.78 109.44" stroke="hsl(228.5, 77.2%, 51.5%)" stroke-width="1.5"></path><path d="M595.16 595.94L595.16 595.94" stroke="hsl(228.5, 77.2%, 51.5%)" stroke-width="1.5"></path><path d="M595.16 595.94L605.71 536.23" stroke="hsl(228.5, 77.2%, 51.5%)" stroke-width="1.5"></path><path d="M-27.69 525.15L-27.69 525.15" stroke="hsl(228.5, 77.2%, 51.5%)" stroke-width="1.5"></path><path d="M-27.69 525.15L50.75 532.56" stroke="hsl(228.5, 77.2%, 51.5%)" stroke-width="1.5"></path><path d="M50.75 532.56L50.75 532.56" stroke="hsl(228.5, 77.2%, 51.5%)" stroke-width="1.5"></path><path d="M50.75 532.56L121.14 538.18" stroke="hsl(228.5, 77.2%, 51.5%)" stroke-width="1.5"></path><path d="M50.75 532.56L32.95 603.41" stroke="hsl(228.5, 77.2%, 51.5%)" stroke-width="1.5"></path><path d="M32.95 603.41L32.95 603.41" stroke="hsl(228.5, 77.2%, 51.5%)" stroke-width="1.5"></path><path d="M32.95 603.41L-27.69 525.15" stroke="hsl(228.5, 77.2%, 51.5%)" stroke-width="1.5"></path><path d="M121.14 538.18L121.14 538.18" stroke="hsl(228.5, 77.2%, 51.5%)" stroke-width="1.5"></path><path d="M229.63 401.25L229.63 401.25" stroke="hsl(228.5, 77.2%, 51.5%)" stroke-width="1.5"></path><path d="M229.63 401.25L317.39 402.11" stroke="hsl(228.5, 77.2%, 51.5%)" stroke-width="1.5"></path><path d="M229.63 401.25L308.79 459.64" stroke="hsl(228.5, 77.2%, 51.5%)" stroke-width="1.5"></path><path d="M229.63 401.25L233.28 510.82" stroke="hsl(228.5, 77.2%, 51.5%)" stroke-width="1.5"></path><path d="M229.63 401.25L370.23 438.33" stroke="hsl(228.5, 77.2%, 51.5%)" stroke-width="1.5"></path><path d="M233.28 510.82L233.28 510.82" stroke="hsl(228.5, 77.2%, 51.5%)" stroke-width="1.5"></path><path d="M233.28 510.82L259.07 596.67" stroke="hsl(228.5, 77.2%, 51.5%)" stroke-width="1.5"></path><path d="M233.28 510.82L308.79 459.64" stroke="hsl(228.5, 77.2%, 51.5%)" stroke-width="1.5"></path><path d="M233.28 510.82L309.67 587.88" stroke="hsl(228.5, 77.2%, 51.5%)" stroke-width="1.5"></path><path d="M259.07 596.67L259.07 596.67" stroke="hsl(228.5, 77.2%, 51.5%)" stroke-width="1.5"></path><path d="M259.07 596.67L309.67 587.88" stroke="hsl(228.5, 77.2%, 51.5%)" stroke-width="1.5"></path><path d="M317.39 402.11L317.39 402.11" stroke="hsl(228.5, 77.2%, 51.5%)" stroke-width="1.5"></path><path d="M317.39 402.11L308.79 459.64" stroke="hsl(228.5, 77.2%, 51.5%)" stroke-width="1.5"></path><path d="M317.39 402.11L370.23 438.33" stroke="hsl(228.5, 77.2%, 51.5%)" stroke-width="1.5"></path><path d="M317.39 402.11L382.12 308.67" stroke="hsl(228.5, 77.2%, 51.5%)" stroke-width="1.5"></path><path d="M308.79 459.64L308.79 459.64" stroke="hsl(228.5, 77.2%, 51.5%)" stroke-width="1.5"></path><path d="M308.79 459.64L370.23 438.33" stroke="hsl(228.5, 77.2%, 51.5%)" stroke-width="1.5"></path><path d="M308.79 459.64L373.46 511.11" stroke="hsl(228.5, 77.2%, 51.5%)" stroke-width="1.5"></path><path d="M309.67 587.88L309.67 587.88" stroke="hsl(228.5, 77.2%, 51.5%)" stroke-width="1.5"></path><path d="M309.67 587.88L373.46 511.11" stroke="hsl(228.5, 77.2%, 51.5%)" stroke-width="1.5"></path><path d="M309.67 587.88L308.79 459.64" stroke="hsl(228.5, 77.2%, 51.5%)" stroke-width="1.5"></path><path d="M389.62 244.27L389.62 244.27" stroke="hsl(228.5, 77.2%, 51.5%)" stroke-width="1.5"></path><path d="M389.62 244.27L382.12 308.67" stroke="hsl(228.5, 77.2%, 51.5%)" stroke-width="1.5"></path><path d="M389.62 244.27L447.76 169.61" stroke="hsl(228.5, 77.2%, 51.5%)" stroke-width="1.5"></path><path d="M389.62 244.27L463.38 311.25" stroke="hsl(228.5, 77.2%, 51.5%)" stroke-width="1.5"></path><path d="M389.62 244.27L388.36 367.71" stroke="hsl(228.5, 77.2%, 51.5%)" stroke-width="1.5"></path><path d="M382.12 308.67L382.12 308.67" stroke="hsl(228.5, 77.2%, 51.5%)" stroke-width="1.5"></path><path d="M382.12 308.67L463.38 311.25" stroke="hsl(228.5, 77.2%, 51.5%)" stroke-width="1.5"></path><path d="M382.12 308.67L438.86 234.12" stroke="hsl(228.5, 77.2%, 51.5%)" stroke-width="1.5"></path><path d="M382.12 308.67L454.69 394.21" stroke="hsl(228.5, 77.2%, 51.5%)" stroke-width="1.5"></path><path d="M370.23 438.33L370.23 438.33" stroke="hsl(228.5, 77.2%, 51.5%)" stroke-width="1.5"></path><path d="M373.46 511.11L373.46 511.11" stroke="hsl(228.5, 77.2%, 51.5%)" stroke-width="1.5"></path><path d="M373.46 511.11L370.23 438.33" stroke="hsl(228.5, 77.2%, 51.5%)" stroke-width="1.5"></path><path d="M373.46 511.11L458.51 533.34" stroke="hsl(228.5, 77.2%, 51.5%)" stroke-width="1.5"></path><path d="M373.46 511.11L463.48 450.47" stroke="hsl(228.5, 77.2%, 51.5%)" stroke-width="1.5"></path><path d="M446.78 109.44L446.78 109.44" stroke="hsl(228.5, 77.2%, 51.5%)" stroke-width="1.5"></path><path d="M446.78 109.44L447.76 169.61" stroke="hsl(228.5, 77.2%, 51.5%)" stroke-width="1.5"></path><path d="M447.76 169.61L447.76 169.61" stroke="hsl(228.5, 77.2%, 51.5%)" stroke-width="1.5"></path><path d="M447.76 169.61L514.02 182.17" stroke="hsl(228.5, 77.2%, 51.5%)" stroke-width="1.5"></path><path d="M447.76 169.61L511.55 119.38" stroke="hsl(228.5, 77.2%, 51.5%)" stroke-width="1.5"></path><path d="M447.76 169.61L463.38 311.25" stroke="hsl(228.5, 77.2%, 51.5%)" stroke-width="1.5"></path><path d="M463.38 311.25L463.38 311.25" stroke="hsl(228.5, 77.2%, 51.5%)" stroke-width="1.5"></path><path d="M463.38 311.25L525.81 301.23" stroke="hsl(228.5, 77.2%, 51.5%)" stroke-width="1.5"></path><path d="M463.38 311.25L438.86 234.12" stroke="hsl(228.5, 77.2%, 51.5%)" stroke-width="1.5"></path><path d="M458.51 533.34L458.51 533.34" stroke="hsl(228.5, 77.2%, 51.5%)" stroke-width="1.5"></path><path d="M458.51 533.34L538.39 518.39" stroke="hsl(228.5, 77.2%, 51.5%)" stroke-width="1.5"></path><path d="M524.12 -26.18L524.12 -26.18" stroke="hsl(228.5, 77.2%, 51.5%)" stroke-width="1.5"></path><path d="M524.12 -26.18L516.54 35.69" stroke="hsl(228.5, 77.2%, 51.5%)" stroke-width="1.5"></path><path d="M516.54 35.69L516.54 35.69" stroke="hsl(228.5, 77.2%, 51.5%)" stroke-width="1.5"></path><path d="M516.54 35.69L511.55 119.38" stroke="hsl(228.5, 77.2%, 51.5%)" stroke-width="1.5"></path><path d="M516.54 35.69L446.78 109.44" stroke="hsl(228.5, 77.2%, 51.5%)" stroke-width="1.5"></path><path d="M516.54 35.69L601.64 93.82" stroke="hsl(228.5, 77.2%, 51.5%)" stroke-width="1.5"></path><path d="M516.54 35.69L514.02 182.17" stroke="hsl(228.5, 77.2%, 51.5%)" stroke-width="1.5"></path><path d="M511.55 119.38L511.55 119.38" stroke="hsl(228.5, 77.2%, 51.5%)" stroke-width="1.5"></path><path d="M511.55 119.38L514.02 182.17" stroke="hsl(228.5, 77.2%, 51.5%)" stroke-width="1.5"></path><path d="M511.55 119.38L446.78 109.44" stroke="hsl(228.5, 77.2%, 51.5%)" stroke-width="1.5"></path><path d="M514.02 182.17L514.02 182.17" stroke="hsl(228.5, 77.2%, 51.5%)" stroke-width="1.5"></path><path d="M514.02 182.17L605.03 186.62" stroke="hsl(228.5, 77.2%, 51.5%)" stroke-width="1.5"></path><path d="M514.02 182.17L438.86 234.12" stroke="hsl(228.5, 77.2%, 51.5%)" stroke-width="1.5"></path><path d="M514.02 182.17L446.78 109.44" stroke="hsl(228.5, 77.2%, 51.5%)" stroke-width="1.5"></path><path d="M525.81 301.23L525.81 301.23" stroke="hsl(228.5, 77.2%, 51.5%)" stroke-width="1.5"></path><path d="M525.81 301.23L583.56 301.6" stroke="hsl(228.5, 77.2%, 51.5%)" stroke-width="1.5"></path><path d="M525.81 301.23L591.66 261.82" stroke="hsl(228.5, 77.2%, 51.5%)" stroke-width="1.5"></path><path d="M513.93 380.9L513.93 380.9" stroke="hsl(228.5, 77.2%, 51.5%)" stroke-width="1.5"></path><path d="M513.93 380.9L578.6 388.65" stroke="hsl(228.5, 77.2%, 51.5%)" stroke-width="1.5"></path><path d="M513.93 380.9L525.81 301.23" stroke="hsl(228.5, 77.2%, 51.5%)" stroke-width="1.5"></path><path d="M513.93 380.9L522.65 464.13" stroke="hsl(228.5, 77.2%, 51.5%)" stroke-width="1.5"></path><path d="M538.39 518.39L538.39 518.39" stroke="hsl(228.5, 77.2%, 51.5%)" stroke-width="1.5"></path><path d="M538.39 518.39L605.71 536.23" stroke="hsl(228.5, 77.2%, 51.5%)" stroke-width="1.5"></path><path d="M538.39 518.39L600.91 461.82" stroke="hsl(228.5, 77.2%, 51.5%)" stroke-width="1.5"></path><path d="M538.39 518.39L595.16 595.94" stroke="hsl(228.5, 77.2%, 51.5%)" stroke-width="1.5"></path><path d="M601.64 93.82L601.64 93.82" stroke="hsl(228.5, 77.2%, 51.5%)" stroke-width="1.5"></path><path d="M601.64 93.82L605.03 186.62" stroke="hsl(228.5, 77.2%, 51.5%)" stroke-width="1.5"></path><path d="M601.64 93.82L511.55 119.38" stroke="hsl(228.5, 77.2%, 51.5%)" stroke-width="1.5"></path><path d="M601.64 93.82L514.02 182.17" stroke="hsl(228.5, 77.2%, 51.5%)" stroke-width="1.5"></path><path d="M601.64 93.82L524.12 -26.18" stroke="hsl(228.5, 77.2%, 51.5%)" stroke-width="1.5"></path><path d="M605.03 186.62L605.03 186.62" stroke="hsl(228.5, 77.2%, 51.5%)" stroke-width="1.5"></path><path d="M605.03 186.62L591.66 261.82" stroke="hsl(228.5, 77.2%, 51.5%)" stroke-width="1.5"></path><path d="M591.66 261.82L591.66 261.82" stroke="hsl(228.5, 77.2%, 51.5%)" stroke-width="1.5"></path><path d="M591.66 261.82L583.56 301.6" stroke="hsl(228.5, 77.2%, 51.5%)" stroke-width="1.5"></path><path d="M583.56 301.6L583.56 301.6" stroke="hsl(228.5, 77.2%, 51.5%)" stroke-width="1.5"></path><path d="M583.56 301.6L578.6 388.65" stroke="hsl(228.5, 77.2%, 51.5%)" stroke-width="1.5"></path><path d="M583.56 301.6L513.93 380.9" stroke="hsl(228.5, 77.2%, 51.5%)" stroke-width="1.5"></path><path d="M578.6 388.65L578.6 388.65" stroke="hsl(228.5, 77.2%, 51.5%)" stroke-width="1.5"></path><path d="M578.6 388.65L600.91 461.82" stroke="hsl(228.5, 77.2%, 51.5%)" stroke-width="1.5"></path><path d="M578.6 388.65L522.65 464.13" stroke="hsl(228.5, 77.2%, 51.5%)" stroke-width="1.5"></path><path d="M578.6 388.65L525.81 301.23" stroke="hsl(228.5, 77.2%, 51.5%)" stroke-width="1.5"></path><path d="M600.91 461.82L600.91 461.82" stroke="hsl(228.5, 77.2%, 51.5%)" stroke-width="1.5"></path><path d="M600.91 461.82L605.71 536.23" stroke="hsl(228.5, 77.2%, 51.5%)" stroke-width="1.5"></path><path d="M600.91 461.82L522.65 464.13" stroke="hsl(228.5, 77.2%, 51.5%)" stroke-width="1.5"></path><path d="M600.91 461.82L513.93 380.9" stroke="hsl(228.5, 77.2%, 51.5%)" stroke-width="1.5"></path><path d="M600.91 461.82L595.16 595.94" stroke="hsl(228.5, 77.2%, 51.5%)" stroke-width="1.5"></path><path d="M605.71 536.23L605.71 536.23" stroke="hsl(228.5, 77.2%, 51.5%)" stroke-width="1.5"></path><circle r="25" cx="-47.8" cy="460.48" fill="url(#SvgjsRadialGradient1023)"></circle><circle r="25" cx="-46.57" cy="583.54" fill="url(#SvgjsRadialGradient1023)"></circle><circle r="25" cx="120.2" cy="468.25" fill="url(#SvgjsRadialGradient1023)"></circle><circle r="25" cx="171.45" cy="585.42" fill="url(#SvgjsRadialGradient1023)"></circle><circle r="25" cx="388.36" cy="367.71" fill="url(#SvgjsRadialGradient1023)"></circle><circle r="25" cx="438.86" cy="234.12" fill="url(#SvgjsRadialGradient1023)"></circle><circle r="25" cx="454.69" cy="394.21" fill="url(#SvgjsRadialGradient1023)"></circle><circle r="25" cx="463.48" cy="450.47" fill="url(#SvgjsRadialGradient1023)"></circle><circle r="25" cx="522.65" cy="464.13" fill="url(#SvgjsRadialGradient1023)"></circle><circle r="25" cx="521.52" cy="593.08" fill="url(#SvgjsRadialGradient1023)"></circle><circle r="25" cx="603.71" cy="29.72" fill="url(#SvgjsRadialGradient1023)"></circle><circle r="25" cx="595.16" cy="595.94" fill="url(#SvgjsRadialGradient1023)"></circle><circle r="5" cx="-27.69" cy="525.15" fill="#8b9ad9"></circle><circle r="5" cx="50.75" cy="532.56" fill="#8b9ad9"></circle><circle r="5" cx="32.95" cy="603.41" fill="#8b9ad9"></circle><circle r="5" cx="121.14" cy="538.18" fill="#8b9ad9"></circle><circle r="5" cx="229.63" cy="401.25" fill="#8b9ad9"></circle><circle r="5" cx="233.28" cy="510.82" fill="#8b9ad9"></circle><circle r="5" cx="259.07" cy="596.67" fill="#8b9ad9"></circle><circle r="5" cx="317.39" cy="402.11" fill="#8b9ad9"></circle><circle r="5" cx="308.79" cy="459.64" fill="#8b9ad9"></circle><circle r="5" cx="309.67" cy="587.88" fill="#8b9ad9"></circle><circle r="5" cx="389.62" cy="244.27" fill="#8b9ad9"></circle><circle r="5" cx="382.12" cy="308.67" fill="#8b9ad9"></circle><circle r="5" cx="370.23" cy="438.33" fill="#8b9ad9"></circle><circle r="5" cx="373.46" cy="511.11" fill="#8b9ad9"></circle><circle r="5" cx="446.78" cy="109.44" fill="#8b9ad9"></circle><circle r="5" cx="447.76" cy="169.61" fill="#8b9ad9"></circle><circle r="5" cx="463.38" cy="311.25" fill="#8b9ad9"></circle><circle r="5" cx="458.51" cy="533.34" fill="#8b9ad9"></circle><circle r="5" cx="524.12" cy="-26.18" fill="#8b9ad9"></circle><circle r="5" cx="516.54" cy="35.69" fill="#8b9ad9"></circle><circle r="5" cx="511.55" cy="119.38" fill="#8b9ad9"></circle><circle r="5" cx="514.02" cy="182.17" fill="#8b9ad9"></circle><circle r="5" cx="525.81" cy="301.23" fill="#8b9ad9"></circle><circle r="5" cx="513.93" cy="380.9" fill="#8b9ad9"></circle><circle r="5" cx="538.39" cy="518.39" fill="#8b9ad9"></circle><circle r="5" cx="601.64" cy="93.82" fill="#8b9ad9"></circle><circle r="5" cx="605.03" cy="186.62" fill="#8b9ad9"></circle><circle r="5" cx="591.66" cy="261.82" fill="#8b9ad9"></circle><circle r="5" cx="583.56" cy="301.6" fill="#8b9ad9"></circle><circle r="5" cx="578.6" cy="388.65" fill="#8b9ad9"></circle><circle r="5" cx="600.91" cy="461.82" fill="#8b9ad9"></circle><circle r="5" cx="605.71" cy="536.23" fill="#8b9ad9"></circle></g><defs><mask id="SvgjsMask1022"><rect width="560" height="560" fill="#ffffff"></rect></mask><radialGradient id="SvgjsRadialGradient1023"><stop stop-color="#ffffff" offset="0.1"></stop><stop stop-color="#1735b3" offset="0.2"></stop><stop stop-color="rgba(23, 53, 179, 0)" offset="1"></stop></radialGradient></defs></svg>