<svg xmlns="http://www.w3.org/2000/svg" version="1.1" xmlns:xlink="http://www.w3.org/1999/xlink" xmlns:svgjs="http://svgjs.com/svgjs" width="1440" height="560" preserveAspectRatio="none" viewBox="0 0 1440 560"><g mask="url(&quot;#SvgjsMask1000&quot;)" fill="none"><rect width="1440" height="560" x="0" y="0" fill="#0e2a47"></rect><path d="M700 72.92C670.7 72.92 659.75 105.38 659.75 140C659.75 182.43 670.14 191.8 700 227.03C729.46 261.8 738.57 254.5 778.4 280C808.57 299.32 813.14 316.67 840 316.67C856.77 316.67 865.67 300.81 865.67 280C865.67 227.48 856.06 223.78 840 170C835.15 153.78 837.48 149.45 823.85 140C767.48 100.91 752.75 72.92 700 72.92" stroke="rgba(51, 121, 194, 0.58)" stroke-width="2"></path><path d="M1260 43.75C1228.01 43.75 1223.98 97.04 1178.95 140C1153.98 163.83 1139.7 150.38 1120 177.33C1088.53 220.38 1081.32 226.58 1076.62 280C1070.64 347.92 1086.74 350.15 1098.64 420C1108.43 477.43 1106.5 478.19 1120 534.55C1123.27 548.19 1132.17 551.11 1132.17 560C1132.17 563.84 1126.09 560 1120 560C1050 560 1050 560 980 560C910 560 910 560 840 560C770 560 770 560 700 560C649.51 560 645.75 570.59 599.02 560C575.75 554.73 581.3 528.27 560 528.27C529.63 528.27 529.74 552.28 495.68 560C459.74 568.15 457.84 560 420 560C350 560 350 560 280 560C228.56 560 214.99 581.37 177.11 560C144.99 541.88 157.8 481.03 140 481.03C122.5 481.03 137.74 542.39 106.52 560C67.74 581.87 23.01 590.25 0 560C-30.25 520.25 0 490 0 420C0 350 0 350 0 280C0 210 0 210 0 140C0 70 -35 35 0 0C35 -35 70 0 140 0C210 0 210 0 280 0C350 0 350 0 420 0C490 0 490 0 560 0C630 0 630 0 700 0C770 0 770 0 840 0C910 0 910 0 980 0C1050 0 1050 0 1120 0C1190 0 1190 0 1260 0C1283.34 0 1284.22 -5.22 1306.67 0C1354.22 11.06 1359.19 32.56 1400 32.56C1415.72 32.56 1402.89 3.91 1419.72 0C1472.89 -12.37 1512.21 -32.35 1540 0C1572.35 37.65 1540 70 1540 140C1540 199.88 1548.84 203.77 1540 259.76C1537.79 273.77 1517.89 266.17 1517.89 280C1517.89 336.29 1530.5 339.86 1540 400C1541.56 409.86 1540 410 1540 420C1540 490 1570.55 520.55 1540 560C1516.35 590.55 1477.91 575.08 1431.61 560C1407.91 552.29 1421.85 530.69 1400 514.42C1336.04 466.78 1330.48 472.39 1260 432.17C1247.76 425.18 1237.38 432.74 1234.55 420C1220.48 356.66 1217.48 346.73 1226.21 280C1230.2 249.51 1245.92 254.22 1260 225.56C1280.31 184.22 1295 183.13 1295 140C1295 92.22 1286.04 43.75 1260 43.75" stroke="rgba(51, 121, 194, 0.58)" stroke-width="2"></path><path d="M280 254.33C262.26 263.99 256.76 262.06 248.57 280C218.92 344.9 194.29 364.29 204.32 420C210 451.57 242.34 454.57 280 454.57C316.07 454.57 321.11 444.23 351.79 420C391.11 388.95 382.37 378.13 420 344C459.55 308.13 506.15 316.03 506.15 280C506.15 237.36 470.84 192.44 420 186.67C357.76 179.61 347.97 217.32 280 254.33" stroke="rgba(51, 121, 194, 0.58)" stroke-width="2"></path><path d="M700 337.65C678.4 337.65 664.1 381.32 664.1 420C664.1 444.37 679.74 463.75 700 463.75C725.14 463.75 754.9 446.16 754.9 420C754.9 383.11 723.8 337.65 700 337.65" stroke="rgba(51, 121, 194, 0.58)" stroke-width="2"></path><path d="M96 0C134.82 41.99 111.69 70.29 129.43 140C133.69 156.76 134.42 156.57 140 172.94C158.28 226.57 177.14 227.13 177.14 280C177.14 323.99 160.05 324.05 140 366.67C127.12 394.05 121.75 391.71 111.28 420C85.99 488.37 106.39 512.31 68.48 560C50.75 582.31 11.25 582.99 0 560C-22.99 512.99 0 490 0 420C0 376.6 -19.45 365.96 0 333.2C22.12 295.96 83.13 303.91 83.13 280C83.13 257.75 19.81 274.24 0 240.88C-21.75 204.24 0 190.44 0 140C0 70 -28.47 41.53 0 0C19.53 -28.47 70.11 -28.01 96 0" stroke="rgba(51, 121, 194, 0.58)" stroke-width="2"></path><path d="M160 140C160 106.27 223.41 65.33 280 65.33C324.39 65.33 361.95 105.53 361.95 140C361.95 170.86 323.26 196 280 196C222.28 196 160 171.6 160 140" stroke="rgba(51, 121, 194, 0.58)" stroke-width="2"></path><path d="M468.57 140C457.96 77.6 483.95 55.2 520 0C529.67 -14.8 540 0 560 0C630 0 687.07 -32.31 700 0C715.07 37.69 657.74 69.84 616 140C587.74 187.5 593.59 235.32 560 235.32C519.87 235.32 477.96 195.26 468.57 140" stroke="rgba(51, 121, 194, 0.58)" stroke-width="2"></path><path d="M917 140C897.43 66.39 832.43 38.06 849.55 0C863.93 -31.94 914.78 0 980 0C1042.39 0 1088.41 -31.83 1104.78 0C1124.41 38.17 1071.86 68.21 1052 140C1033.13 208.21 1030.51 209.59 1027.32 280C1024.17 349.59 1044.83 350.89 1039.32 420C1033.67 490.89 1030.28 500.35 1005 560C1000.62 570.35 992.5 560 980 560C910 560 910 560 840 560C770 560 770 560 700 560C678.19 560 656.39 568.73 656.39 560C656.39 547.95 676.93 537.77 700 518.44C760.5 467.77 763.39 470.88 823.53 420C833.39 411.66 832.45 410.52 840 400C882.69 340.52 904.33 346.43 924 280C942.83 216.43 934.65 206.39 917 140" stroke="rgba(51, 121, 194, 0.58)" stroke-width="2"></path><path d="M1374.55 140C1383.58 124.34 1389.86 128.98 1400 113.95C1437.09 58.98 1423.34 37.17 1469.01 0C1493.34 -19.81 1528.06 -23.55 1540 0C1563.55 46.45 1540 70 1540 140C1540 178.8 1555.55 185.64 1540 217.59C1521.47 255.64 1494.66 241.26 1471.84 280C1435.03 342.47 1451.59 354.29 1420.74 420C1415.67 430.8 1410.37 433.02 1400 433.02C1389.63 433.02 1385.66 430.22 1379.26 420C1337.76 353.71 1305.4 350.48 1304.21 280C1303.04 210.48 1335.69 207.37 1374.55 140" stroke="rgba(51, 121, 194, 0.58)" stroke-width="2"></path><path d="M441.54 420C441.54 377.9 508.95 323.75 560 323.75C597.8 323.75 619.23 375.06 619.23 420C619.23 453.98 594.67 481.6 560 481.6C505.83 481.6 441.54 456.83 441.54 420" stroke="rgba(51, 121, 194, 0.58)" stroke-width="2"></path><path d="M219.28 560C219.28 541.68 244.47 497.78 280 497.78C336.3 497.78 402.93 543.56 402.93 560C402.93 574.67 341.47 560 280 560C249.64 560 219.28 572.79 219.28 560" stroke="rgba(51, 121, 194, 0.58)" stroke-width="2"></path><path d="M1488.06 560C1488.06 538.07 1525.6 490 1540 490C1551.57 490 1554.91 539.91 1540 560C1528.94 574.91 1488.06 573.07 1488.06 560" stroke="rgba(51, 121, 194, 0.58)" stroke-width="2"></path><path d="M0 5.6C16.65 5.6 63.4 80.36 63.4 140C63.4 172.26 19.63 189.41 0 189.41C-12.07 189.41 0 164.7 0 140C0 72.8 -15.05 5.6 0 5.6" stroke="rgba(51, 121, 194, 0.58)" stroke-width="2"></path><path d="M540 140C540 122.55 551.64 102.31 560 102.31C567.76 102.31 572.25 121.82 572.25 140C572.25 151.09 567.35 160.85 560 160.85C551.22 160.85 540 151.82 540 140" stroke="rgba(51, 121, 194, 0.58)" stroke-width="2"></path><path d="M980 97.39C954.98 97.39 929.09 33.28 929.09 0C929.09 -15.42 954.55 0 980 0C1004.35 0 1028.7 -15.05 1028.7 0C1028.7 33.65 1004.79 97.39 980 97.39" stroke="rgba(51, 121, 194, 0.58)" stroke-width="2"></path><path d="M1462.63 140C1455.7 83.95 1484.49 61.19 1518.31 0C1523.18 -8.81 1538.55 -9.39 1540 0C1549.39 60.61 1540 70 1540 140C1540 157.71 1551.37 175.42 1540 175.42C1512.68 175.42 1466.54 171.66 1462.63 140" stroke="rgba(51, 121, 194, 0.58)" stroke-width="2"></path><path d="M1365.61 280C1365.61 248.84 1384.56 216.77 1400 216.77C1414.65 216.77 1425.79 248.67 1425.79 280C1425.79 308.29 1414.57 336 1400 336C1384.48 336 1365.61 308.45 1365.61 280" stroke="rgba(51, 121, 194, 0.58)" stroke-width="2"></path><path d="M0 403.2C6.67 403.2 19.06 407.22 21.54 420C34.28 485.62 39.28 502.48 30.43 560C28.51 572.48 2.72 572.5 0 560C-12.5 502.5 0 490 0 420C0 411.6 -4.1 403.2 0 403.2" stroke="rgba(51, 121, 194, 0.58)" stroke-width="2"></path><path d="M531.28 420C531.28 409.8 547.62 396.67 560 396.67C569.16 396.67 574.36 409.11 574.36 420C574.36 428.24 568.41 434.93 560 434.93C546.87 434.93 531.28 428.93 531.28 420" stroke="rgba(51, 121, 194, 0.58)" stroke-width="2"></path><path d="M261.45 560C261.45 554.4 269.15 540.99 280 540.99C297.2 540.99 317.56 554.98 317.56 560C317.56 564.48 298.78 560 280 560C270.73 560 261.45 563.91 261.45 560" stroke="rgba(51, 121, 194, 0.58)" stroke-width="2"></path><path d="M770 560C770 551.16 808.03 526.4 840 526.4C859.19 526.4 872.31 550.08 872.31 560C872.31 566.88 856.15 560 840 560C805 560 770 567.96 770 560" stroke="rgba(51, 121, 194, 0.58)" stroke-width="2"></path></g><defs><mask id="SvgjsMask1000"><rect width="1440" height="560" fill="#ffffff"></rect></mask></defs></svg>