<svg xmlns="http://www.w3.org/2000/svg" version="1.1" xmlns:xlink="http://www.w3.org/1999/xlink" xmlns:svgjs="http://svgjs.com/svgjs" width="560" height="1120" preserveAspectRatio="none" viewBox="0 0 560 1120"><g mask="url(&quot;#SvgjsMask1226&quot;)" fill="none"><rect width="560" height="1120" x="0" y="0" fill="#0e2a47"></rect><path d="M216 1049L591 1424" stroke-width="8" stroke="url(#SvgjsLinearGradient1227)" stroke-linecap="round" class="BottomRight"></path><path d="M539 419L301 181" stroke-width="6" stroke="url(#SvgjsLinearGradient1228)" stroke-linecap="round" class="BottomRight"></path><path d="M341 675L500 834" stroke-width="8" stroke="url(#SvgjsLinearGradient1229)" stroke-linecap="round" class="TopLeft"></path><path d="M217 970L456 1209" stroke-width="6" stroke="url(#SvgjsLinearGradient1230)" stroke-linecap="round" class="TopLeft"></path><path d="M413 4L728 319" stroke-width="8" stroke="url(#SvgjsLinearGradient1231)" stroke-linecap="round" class="BottomRight"></path><path d="M188 997L599 1408" stroke-width="10" stroke="url(#SvgjsLinearGradient1228)" stroke-linecap="round" class="BottomRight"></path><path d="M536 345L133 -58" stroke-width="10" stroke="url(#SvgjsLinearGradient1229)" stroke-linecap="round" class="TopLeft"></path><path d="M232 1099L598 1465" stroke-width="8" stroke="url(#SvgjsLinearGradient1232)" stroke-linecap="round" class="TopLeft"></path><path d="M144 226L504 586" stroke-width="8" stroke="url(#SvgjsLinearGradient1233)" stroke-linecap="round" class="BottomRight"></path><path d="M191 1007L499 1315" stroke-width="6" stroke="url(#SvgjsLinearGradient1230)" stroke-linecap="round" class="TopLeft"></path><path d="M62 517L-278 177" stroke-width="10" stroke="url(#SvgjsLinearGradient1233)" stroke-linecap="round" class="BottomRight"></path><path d="M450 245L280 75" stroke-width="10" stroke="url(#SvgjsLinearGradient1230)" stroke-linecap="round" class="TopLeft"></path><path d="M520 215L719 414" stroke-width="8" stroke="url(#SvgjsLinearGradient1234)" stroke-linecap="round" class="TopLeft"></path><path d="M391 710L662 981" stroke-width="8" stroke="url(#SvgjsLinearGradient1234)" stroke-linecap="round" class="TopLeft"></path><path d="M222 294L-118 -46" stroke-width="6" stroke="url(#SvgjsLinearGradient1227)" stroke-linecap="round" class="BottomRight"></path><path d="M184 21L344 181" stroke-width="10" stroke="url(#SvgjsLinearGradient1228)" stroke-linecap="round" class="BottomRight"></path><path d="M284 786L142 644" stroke-width="8" stroke="url(#SvgjsLinearGradient1232)" stroke-linecap="round" class="TopLeft"></path><path d="M416 819L635 1038" stroke-width="6" stroke="url(#SvgjsLinearGradient1231)" stroke-linecap="round" class="BottomRight"></path><path d="M489 137L838 486" stroke-width="8" stroke="url(#SvgjsLinearGradient1227)" stroke-linecap="round" class="BottomRight"></path><path d="M339 681L41 383" stroke-width="6" stroke="url(#SvgjsLinearGradient1228)" stroke-linecap="round" class="BottomRight"></path><path d="M250 930L434 1114" stroke-width="10" stroke="url(#SvgjsLinearGradient1231)" stroke-linecap="round" class="BottomRight"></path><path d="M507 739L207 439" stroke-width="10" stroke="url(#SvgjsLinearGradient1229)" stroke-linecap="round" class="TopLeft"></path><path d="M221 755L-82 452" stroke-width="10" stroke="url(#SvgjsLinearGradient1233)" stroke-linecap="round" class="BottomRight"></path><path d="M379 931L764 1316" stroke-width="8" stroke="url(#SvgjsLinearGradient1230)" stroke-linecap="round" class="TopLeft"></path><path d="M497 703L119 325" stroke-width="8" stroke="url(#SvgjsLinearGradient1233)" stroke-linecap="round" class="BottomRight"></path><path d="M437 858L47 468" stroke-width="8" stroke="url(#SvgjsLinearGradient1231)" stroke-linecap="round" class="BottomRight"></path><path d="M322 375L-32 21" stroke-width="6" stroke="url(#SvgjsLinearGradient1228)" stroke-linecap="round" class="BottomRight"></path><path d="M258 663L608 1013" stroke-width="6" stroke="url(#SvgjsLinearGradient1230)" stroke-linecap="round" class="TopLeft"></path><path d="M153 313L329 489" stroke-width="10" stroke="url(#SvgjsLinearGradient1230)" stroke-linecap="round" class="TopLeft"></path><path d="M357 595L121 359" stroke-width="6" stroke="url(#SvgjsLinearGradient1230)" stroke-linecap="round" class="TopLeft"></path><path d="M310 299L558 547" stroke-width="10" stroke="url(#SvgjsLinearGradient1233)" stroke-linecap="round" class="BottomRight"></path><path d="M383 597L113 327" stroke-width="10" stroke="url(#SvgjsLinearGradient1227)" stroke-linecap="round" class="BottomRight"></path></g><defs><mask id="SvgjsMask1226"><rect width="560" height="1120" fill="#ffffff"></rect></mask><linearGradient x1="0%" y1="0%" x2="100%" y2="100%" id="SvgjsLinearGradient1227"><stop stop-color="rgba(0, 21, 255, 0)" offset="0"></stop><stop stop-color="rgba(0, 21, 255, 1)" offset="1"></stop></linearGradient><linearGradient x1="0%" y1="0%" x2="100%" y2="100%" id="SvgjsLinearGradient1228"><stop stop-color="rgba(145, 58, 247, 0)" offset="0"></stop><stop stop-color="rgba(145, 58, 247, 1)" offset="1"></stop></linearGradient><linearGradient x1="100%" y1="100%" x2="0%" y2="0%" id="SvgjsLinearGradient1229"><stop stop-color="rgba(145, 58, 247, 0)" offset="0"></stop><stop stop-color="rgba(145, 58, 247, 1)" offset="1"></stop></linearGradient><linearGradient x1="100%" y1="100%" x2="0%" y2="0%" id="SvgjsLinearGradient1230"><stop stop-color="rgba(81, 28, 142, 0)" offset="0"></stop><stop stop-color="rgba(81, 28, 142, 1)" offset="1"></stop></linearGradient><linearGradient x1="0%" y1="0%" x2="100%" y2="100%" id="SvgjsLinearGradient1231"><stop stop-color="rgba(81, 28, 142, 0)" offset="0"></stop><stop stop-color="rgba(81, 28, 142, 1)" offset="1"></stop></linearGradient><linearGradient x1="100%" y1="100%" x2="0%" y2="0%" id="SvgjsLinearGradient1232"><stop stop-color="rgba(101, 58, 247, 0)" offset="0"></stop><stop stop-color="rgba(101, 58, 247, 1)" offset="1"></stop></linearGradient><linearGradient x1="0%" y1="0%" x2="100%" y2="100%" id="SvgjsLinearGradient1233"><stop stop-color="rgba(101, 58, 247, 0)" offset="0"></stop><stop stop-color="rgba(101, 58, 247, 1)" offset="1"></stop></linearGradient><linearGradient x1="100%" y1="100%" x2="0%" y2="0%" id="SvgjsLinearGradient1234"><stop stop-color="rgba(0, 21, 255, 0)" offset="0"></stop><stop stop-color="rgba(0, 21, 255, 1)" offset="1"></stop></linearGradient></defs></svg>